
<svg width="31" height="32" viewBox="0 0 32 32" fill="none" xmlns="http://www.w3.org/2000/svg">
<path fill-rule="evenodd" clip-rule="evenodd" d="M13.69 25.3332C14.2135 25.3332 13.8069 24.9794 13.7293 24.4972C13.6579 24.107 13.384 23.7882 13.0156 23.6665C12.7154 23.5608 12.4219 23.4361 12.1368 23.2932C11.7975 23.1152 11.3905 23.1418 11.076 23.3625C10.6954 23.6432 10.1726 23.5997 9.84101 23.2598L8.55141 21.9372C8.20435 21.5812 8.15925 21.02 8.44481 20.6105C8.66504 20.2805 8.69676 19.855 8.52801 19.4945C8.41683 19.2441 8.31875 18.9877 8.23421 18.7265C8.11313 18.3149 7.77893 18.0066 7.36711 17.9265C6.87049 17.8452 6.50387 17.4077 6.50001 16.8918V15.2372C6.49737 14.6426 6.91607 14.1341 7.48801 14.0372C7.92191 13.9525 8.28421 13.6477 8.45001 13.2278C8.49941 13.1096 8.55141 12.9923 8.60601 12.8758C8.82652 12.4404 8.79607 11.916 8.52671 11.5105C8.18987 11.0303 8.24159 10.3706 8.64891 9.95184L9.59661 8.97984C10.064 8.50026 10.8012 8.4382 11.3386 8.83317L11.3685 8.8545C11.7698 9.13152 12.2804 9.18169 12.7257 8.98784C13.2021 8.81198 13.5532 8.39216 13.65 7.8825L13.6631 7.83717C13.77 7.16246 14.3381 6.66678 15.0047 6.6665H16.1487C16.8331 6.66618 17.4172 7.17393 17.5292 7.8665L17.55 7.95984C17.6419 8.44806 17.9748 8.85213 18.4288 9.0265C18.8664 9.21913 19.3696 9.16882 19.7627 8.89317L19.8276 8.84517C20.3789 8.43762 21.1371 8.5003 21.6177 8.99317L22.49 9.88917C22.9272 10.3401 22.9821 11.0491 22.62 11.5652C22.3363 11.9965 22.3001 12.5508 22.5251 13.0172L22.5811 13.1505C22.7632 13.6058 23.1575 13.9358 23.6288 14.0278C24.2449 14.1309 24.698 14.6757 24.7 15.3158V16.7998C24.6999 17.3644 24.3017 17.846 23.7588 17.9385C23.3123 18.0264 22.9485 18.358 22.8111 18.8025C22.7504 18.9802 22.6828 19.1581 22.6083 19.3358C22.4348 19.7265 22.4733 20.1817 22.7097 20.5358C23.0216 20.9809 22.9732 21.5922 22.5953 21.9798L21.3851 23.2225C21.0389 23.5774 20.4931 23.6232 20.0955 23.3305C19.7635 23.0978 19.3335 23.0722 18.9775 23.2638C18.7237 23.3928 18.4633 23.5072 18.1975 23.6065C17.8256 23.7381 17.5515 24.0645 17.4799 24.4612C17.404 24.9602 16.9868 25.3294 16.4944 25.3332H14.69Z" stroke="white" stroke-width="1.5" stroke-linecap="round" stroke-linejoin="round"/>
<path fill-rule="evenodd" clip-rule="evenodd" d="M17.6329 15.9998C18.6329 17.7178 17.2751 19.1105 15.6 19.1105C13.9249 19.1105 12.5671 17.7178 12.5671 15.9998C12.5671 14.2818 13.9249 12.8892 15.6 12.8892C17.2751 12.8892 18.6329 14.2818 18.6329 15.9998Z" stroke="white" stroke-width="1.5" stroke-linecap="round" stroke-linejoin="round"/>
</svg>
