<svg width="24" height="24" viewBox="0 0 24 24" fill="none" xmlns="http://www.w3.org/2000/svg">
<g clip-path="url(#clip0_124_31)">
<path fill-rule="evenodd" clip-rule="evenodd" d="M12 5.25098C8.27213 5.25098 5.25 8.2731 5.25 12.001C5.25 15.7289 8.27213 18.751 12 18.751C15.7279 18.751 18.75 15.7289 18.75 12.001C18.75 8.2731 15.7279 5.25098 12 5.25098ZM12 18.001C8.68613 18.001 6 15.3145 6 12.001C6 8.68748 8.68613 6.00098 12 6.00098C15.3139 6.00098 18 8.68748 18 12.001C18 15.3145 15.3139 18.001 12 18.001Z" fill="white"/>
<path fill-rule="evenodd" clip-rule="evenodd" d="M23.625 11.625H19.875C19.6676 11.625 19.5 11.7926 19.5 12C19.5 12.2074 19.6676 12.375 19.875 12.375H23.625C23.8324 12.375 24 12.2074 24 12C24 11.7926 23.8324 11.625 23.625 11.625Z" fill="white"/>
<path fill-rule="evenodd" clip-rule="evenodd" d="M4.29635 13.676L2.84773 14.0641C2.64748 14.1185 2.5286 14.324 2.5826 14.5242C2.63623 14.7241 2.84135 14.843 3.04198 14.7886L4.4906 14.4005C4.69048 14.3468 4.80935 14.1421 4.75573 13.9411C4.7021 13.7412 4.49623 13.6223 4.29635 13.676Z" fill="white"/>
<path fill-rule="evenodd" clip-rule="evenodd" d="M18.495 8.25014C18.5989 8.42977 18.828 8.49127 19.0076 8.38702L22.2551 6.51202C22.4348 6.40889 22.4963 6.17939 22.392 6.00014C22.2889 5.82052 22.0594 5.75902 21.8801 5.86327L18.6326 7.73827C18.453 7.84214 18.3919 8.07052 18.495 8.25014Z" fill="white"/>
<path fill-rule="evenodd" clip-rule="evenodd" d="M6.69675 17.3035C6.5505 17.1569 6.31312 17.1577 6.1665 17.3035L5.106 18.364C4.95937 18.5107 4.95975 18.7484 5.10637 18.8943C5.25262 19.0409 5.48962 19.0409 5.63625 18.8943L6.69675 17.8338C6.84337 17.6879 6.84337 17.4498 6.69675 17.3035Z" fill="white"/>
<path fill-rule="evenodd" clip-rule="evenodd" d="M15.75 5.50502C15.9297 5.60815 16.1588 5.5474 16.2627 5.3674L18.1377 2.1199C18.2415 1.94027 18.18 1.71077 18 1.60765C17.8208 1.50377 17.592 1.56527 17.4882 1.74452L15.6135 4.99277C15.5093 5.1724 15.5708 5.40077 15.75 5.50502Z" fill="white"/>
<path fill-rule="evenodd" clip-rule="evenodd" d="M10.059 19.2443C9.85955 19.1906 9.65405 19.3103 9.59967 19.5094L9.21155 20.958C9.15792 21.1586 9.27755 21.3638 9.47742 21.4174C9.6773 21.4718 9.88242 21.3529 9.93605 21.1523L10.3242 19.7036C10.3785 19.5045 10.2597 19.2986 10.059 19.2443Z" fill="white"/>
<path fill-rule="evenodd" clip-rule="evenodd" d="M12 4.5C12.2077 4.5 12.3754 4.33237 12.3757 4.125V0.375C12.3757 0.167625 12.2081 0 12 0C11.7934 0 11.6257 0.167625 11.6254 0.375L11.6257 4.125C11.6257 4.33237 11.7934 4.5 12 4.5Z" fill="white"/>
<path fill-rule="evenodd" clip-rule="evenodd" d="M14.4008 19.5094C14.3479 19.3096 14.1424 19.1907 13.9414 19.2443C13.7416 19.2979 13.6234 19.5034 13.6763 19.7037L14.0644 21.1523C14.1184 21.3529 14.3243 21.4711 14.5246 21.4174C14.7248 21.3638 14.8429 21.1591 14.7889 20.9581L14.4008 19.5094Z" fill="white"/>
<path fill-rule="evenodd" clip-rule="evenodd" d="M7.73889 5.36702C7.84201 5.54665 8.07151 5.60815 8.25001 5.50465C8.43001 5.40077 8.49189 5.17202 8.38801 4.99202L6.51301 1.74452C6.40951 1.56527 6.18001 1.50377 6.00001 1.60765C5.82114 1.71077 5.75964 1.94027 5.86314 2.11952L7.73889 5.36702Z" fill="white"/>
<path fill-rule="evenodd" clip-rule="evenodd" d="M17.8343 17.3028C17.6888 17.1569 17.451 17.1569 17.304 17.3028C17.1574 17.4494 17.1585 17.6871 17.304 17.833L18.3645 18.8935C18.5115 19.0409 18.7489 19.0394 18.8951 18.8935C19.0418 18.7469 19.0418 18.5106 18.8948 18.3633L17.8343 17.3028Z" fill="white"/>
<path fill-rule="evenodd" clip-rule="evenodd" d="M1.74519 6.51168L4.99344 8.38593C5.17232 8.48981 5.40144 8.42831 5.50457 8.24981C5.60844 8.06981 5.54769 7.84106 5.36807 7.73718L2.12019 5.86218C1.94094 5.75793 1.71144 5.81981 1.60757 5.99981C1.50482 6.17868 1.56594 6.40781 1.74519 6.51168Z" fill="white"/>
<path fill-rule="evenodd" clip-rule="evenodd" d="M19.5101 14.3998L20.9588 14.7879C21.1594 14.8423 21.3645 14.7219 21.4181 14.522C21.4721 14.3222 21.3536 14.117 21.153 14.0634L19.7044 13.6753C19.5053 13.6209 19.299 13.7398 19.245 13.9404C19.191 14.1407 19.311 14.3458 19.5101 14.3998Z" fill="white"/>
<path fill-rule="evenodd" clip-rule="evenodd" d="M4.5 11.9998C4.50038 11.7916 4.33313 11.6248 4.12575 11.624L0.375 11.6248C0.168 11.6248 0 11.7916 0 11.9998C0.000375 12.2064 0.168 12.3748 0.375375 12.3748L4.12575 12.374C4.33238 12.374 4.50038 12.2064 4.5 11.9998Z" fill="white"/>
<path fill-rule="evenodd" clip-rule="evenodd" d="M19.7044 10.3233L21.153 9.93513C21.3537 9.8815 21.4718 9.67525 21.4178 9.475C21.3645 9.27588 21.1598 9.157 20.9588 9.21063L19.5102 9.59875C19.3103 9.65163 19.1914 9.85788 19.245 10.0581C19.2979 10.258 19.5045 10.3761 19.7044 10.3233Z" fill="white"/>
<path d="M12 18C15.3137 18 18 15.3137 18 12C18 8.68629 15.3137 6 12 6C8.68629 6 6 8.68629 6 12C6 15.3137 8.68629 18 12 18Z" fill="#F9EBB2"/>
<path fill-rule="evenodd" clip-rule="evenodd" d="M5.50496 15.75C5.40183 15.57 5.17271 15.5082 4.99308 15.6117L1.74521 17.4874C1.56596 17.5913 1.50371 17.82 1.60758 18C1.71146 18.1789 1.94096 18.2404 2.12021 18.1369L5.36771 16.2612C5.54658 16.158 5.60883 15.9297 5.50496 15.75Z" fill="white"/>
<path fill-rule="evenodd" clip-rule="evenodd" d="M17.3041 6.69584C17.4499 6.84321 17.6873 6.84171 17.8343 6.69584L18.8948 5.63534C19.0418 5.48871 19.0411 5.25171 18.8941 5.10509C18.7486 4.95846 18.5112 4.95846 18.3646 5.10509L17.3041 6.16559C17.1571 6.31146 17.1578 6.54959 17.3041 6.69584Z" fill="white"/>
<path fill-rule="evenodd" clip-rule="evenodd" d="M8.24997 18.4949C8.07034 18.391 7.84197 18.4525 7.73809 18.631L5.86309 21.88C5.75997 22.0589 5.81997 22.288 5.99997 22.3919C6.17959 22.4943 6.40872 22.4328 6.5126 22.2543L8.38684 19.006C8.49034 18.8275 8.42997 18.5984 8.24997 18.4949Z" fill="white"/>
<path fill-rule="evenodd" clip-rule="evenodd" d="M13.9417 4.75515C14.1408 4.80952 14.346 4.68915 14.4011 4.49002L14.7892 3.0414C14.8428 2.84077 14.7232 2.6349 14.5233 2.58202C14.3242 2.52765 14.1183 2.64652 14.0647 2.84715L13.6766 4.29577C13.6215 4.4949 13.7418 4.70077 13.9417 4.75515Z" fill="white"/>
<path fill-rule="evenodd" clip-rule="evenodd" d="M12 19.5C11.7926 19.4993 11.6258 19.6669 11.625 19.8743L11.6258 23.6258C11.6258 23.8316 11.7919 24 12 24C12.2074 24 12.375 23.8316 12.3754 23.625L12.3743 19.8743C12.3743 19.6676 12.2081 19.5 12 19.5Z" fill="white"/>
<path fill-rule="evenodd" clip-rule="evenodd" d="M9.59999 4.49002C9.65211 4.6899 9.85911 4.80877 10.0594 4.75515C10.2589 4.70227 10.3766 4.49602 10.3245 4.29577L9.93636 2.84715C9.88198 2.64652 9.67649 2.52765 9.47624 2.58202C9.27711 2.63565 9.15749 2.8404 9.21186 3.0414L9.59999 4.49002Z" fill="white"/>
<path fill-rule="evenodd" clip-rule="evenodd" d="M16.2612 18.6324C16.158 18.4535 15.93 18.3913 15.75 18.4952C15.5704 18.5983 15.5097 18.827 15.6124 19.007L17.4889 22.2545C17.592 22.4342 17.82 22.4964 18 22.3922C18.1797 22.2883 18.2408 22.0588 18.1377 21.8795L16.2612 18.6324Z" fill="white"/>
<path fill-rule="evenodd" clip-rule="evenodd" d="M6.16616 6.69546C6.31128 6.84359 6.54978 6.84209 6.69641 6.69546C6.84303 6.55034 6.84153 6.31296 6.69641 6.16521L5.63591 5.10471C5.48853 4.95809 5.25153 4.95884 5.10528 5.10546C4.95903 5.25134 4.95828 5.48834 5.10566 5.63496L6.16616 6.69546Z" fill="white"/>
<path fill-rule="evenodd" clip-rule="evenodd" d="M22.2556 17.4876L19.0069 15.6133C18.8277 15.5102 18.5993 15.5702 18.4958 15.7509C18.3916 15.9298 18.4538 16.1582 18.6323 16.2621L21.8813 18.1371C22.0602 18.2402 22.2886 18.1802 22.3924 18.0002C22.4956 17.8202 22.4341 17.5914 22.2556 17.4876Z" fill="white"/>
<path fill-rule="evenodd" clip-rule="evenodd" d="M4.4903 9.59907L3.0413 9.21057C2.8403 9.15695 2.63517 9.27657 2.58192 9.47645C2.52792 9.67557 2.64605 9.88145 2.84705 9.93582L4.29567 10.3232C4.4948 10.3779 4.70105 10.2579 4.75505 10.0581C4.80942 9.8597 4.68942 9.65457 4.4903 9.59907Z" fill="white"/>
<path fill-rule="evenodd" clip-rule="evenodd" d="M12 7.50098C11.7926 7.50098 11.625 7.6686 11.625 7.87598C11.625 8.08335 11.7926 8.25098 12 8.25098C14.0707 8.25098 15.75 9.92985 15.75 12.001C15.75 12.2084 15.9176 12.376 16.125 12.376C16.3324 12.376 16.5 12.2084 16.5 12.001C16.5 9.51585 14.4851 7.50098 12 7.50098Z" fill="white"/>
</g>
<defs>
<clipPath id="clip0_124_31">
<rect width="24" height="24" fill="white"/>
</clipPath>
</defs>
</svg>
